# xmcd CD database file
#
# Track frame offsets:
#	150
#	26394
#	51757
#	73385
#	103120
#	126935
#	155134
#	176205
#	202752
#
# Disc length: 3169 seconds
#
# Revision: 0
# Processed by: cddbd v1.5.1PL0 Copyright (c) Steve Scherf et al.
# Submitted via: CDex 1.51
#
DISCID=810c5f09
DTITLE=Pete Malinverni - Autumn in New York
DYEAR=1900
DGENRE=Jazz
TTITLE0=Simpatico
TTITLE1=Too Close for Comfort
TTITLE2=Elegy
TTITLE3=My Shining Hour
TTITLE4=Contemplative
TTITLE5=Little David
TTITLE6=In Love in Vain
TTITLE7=Long Ago (And Far Away)
TTITLE8=Autumn in New York
EXTD=
EXTT0=
EXTT1=
EXTT2=
EXTT3=
EXTT4=
EXTT5=
EXTT6=
EXTT7=
EXTT8=
PLAYORDER=
